<?xml version="1.0" encoding="utf-8"?>
<!-- Svg Vector Icons : http://www.onlinewebfonts.com/icon -->
<!DOCTYPE svg PUBLIC "-//W3C//DTD SVG 1.1//EN" "http://www.w3.org/Graphics/SVG/1.1/DTD/svg11.dtd">
<svg version="1.1" xmlns="http://www.w3.org/2000/svg" xmlns:xlink="http://www.w3.org/1999/xlink" x="0px" y="0px" viewBox="0 0 1000 1000" enable-background="new 0 0 1000 1000" xml:space="preserve">
<metadata> Svg Vector Icons : http://www.onlinewebfonts.com/icon </metadata>
<g><g fill="#93D801" transform="translate(0.000000,511.000000) scale(0.100000,-0.100000)"><path d="M7367.8,3430.6c-65.5-490.2-117.1-891.2-115.1-895.2c11.9-11.9,2574.4-7.9,2586.2,4c9.9,11.9-204.4,1663.3-226.3,1744.7c-9.9,31.8-77.4,33.7-1067.9,33.7H7488.9L7367.8,3430.6z"/><path d="M2816.6,2412.4c-1061.9-101.2-1861.8-436.7-2183.3-917l-79.4-119.1V844.4V312.5l254.1-7.9c244.2-6,260-7.9,353.3-65.5c59.5-37.7,119.1-97.3,156.8-156.8l59.5-97.2l9.9-607.4l9.9-607.4l2010.6-5.9l2008.7-4v579.6c0,567.7,2,583.5,47.6,680.8c47.6,103.2,156.8,214.4,248.1,254.1c27.8,11.9,162.8,25.8,299.7,31.8l248.1,11.9l6,500.2l4,502.2l-51.6,103.2c-29.8,57.6-107.2,160.8-174.7,230.2c-337.4,353.3-922.9,593.5-1748.6,718.5C3979.7,2422.3,3150,2442.2,2816.6,2412.4z"/><path d="M8374.1-693.9v-2949.5l-49.6-47.7l-47.6-49.6h-488.3h-488.3l-47.6-49.6c-69.5-67.5-69.5-190.5,0-258l47.6-49.6H8531c859.4,0,1244.5,6,1278.2,21.8c121.1,55.6,121.1,258,0,313.6c-29.8,13.9-214.4,21.8-510.1,21.8c-438.6,0-466.4,2-516.1,41.7l-51.6,39.7l-4,2951.5l-5.9,2951.5l-172.7,6l-174.7,6V-693.9z"/><path d="M246.2,12.7c-21.8-9.9-61.5-41.7-89.3-71.4l-49.6-53.6l-6-1655.4c-4-1456.9,0-1663.3,25.8-1714.9c65.5-127-164.7-119.1,3292.9-119.1h3148l63.5,57.6l65.5,57.5l5.9,1669.3c6,1845.9,11.9,1752.6-123.1,1816.1c-101.2,47.6-666.9,45.6-766.1-4c-142.9-69.5-138.9-31.8-138.9-1367.6v-1196.9H3402.1H1129.5l-4,1230.6l-6,1230.6L1054-44.8l-63.5,65.5l-353.3,4C444.7,26.6,268.1,22.7,246.2,12.7z"/><path d="M1395.4-1523.5c-4-13.9-5.9-202.5-4-420.8l5.9-397l2010.6-6l2008.7-4v426.7v426.7H3412C1802.3-1497.7,1403.4-1503.7,1395.4-1523.5z"/><path d="M849.6-3758.5c-45.6-45.6-57.6-75.4-57.6-140.9c0-65.5,11.9-95.3,57.6-140.9c57.5-57.6,61.5-57.6,279.9-57.6c218.3,0,222.3,0,279.9,57.6c45.6,45.6,57.5,75.4,57.5,140.9c0,65.5-11.9,95.3-57.5,140.9c-57.6,57.6-61.5,57.6-279.9,57.6C911.1-3700.9,907.2-3700.9,849.6-3758.5z"/><path d="M5406.8-3748.5c-25.8-25.8-53.6-71.4-61.5-99.2c-17.9-71.4,5.9-144.9,61.5-202.4c45.6-45.7,61.5-47.7,273.9-47.7c218.3,0,228.3,2,279.9,51.6c71.4,73.5,73.4,216.4,2,293.8c-45.6,49.6-53.6,51.6-277.9,51.6C5468.3-3700.9,5452.5-3702.9,5406.8-3748.5z"/></g></g>
</svg>
