<?xml version="1.0" encoding="iso-8859-1"?>
<!-- Generator: Adobe Illustrator 19.0.0, SVG Export Plug-In . SVG Version: 6.00 Build 0)  -->
<svg version="1.1" id="Layer_1" xmlns="http://www.w3.org/2000/svg" xmlns:xlink="http://www.w3.org/1999/xlink" x="0px" y="0px"
	 viewBox="0 0 512.001 512.001" style="enable-background:new 0 0 512.001 512.001;" xml:space="preserve">
<g fill="#93D801">
	<path d="M0,327.788h16.011v32.196h15.663v-32.196h168.463v32.196H215.8v-32.196h16.011v-55.69H0V327.788z
		 M15.663,287.761h200.484v24.364H15.663V287.761z"/>
	<path d="M280.191,272.098v55.69h16.011v32.196h15.663v-32.196h168.463v32.196h15.663v-32.196h16.011v-55.69
		H280.191z M496.337,312.125H295.854v-24.364h200.483V312.125z"/>
	<path d="M199.788,263.919v-5.743c0-14.394-11.711-26.105-26.105-26.105H58.126
		c-14.394,0-26.105,11.711-26.105,26.105v5.743h15.663v-5.743c0-5.758,4.684-10.442,10.442-10.442h115.558
		c5.758,0,10.442,4.684,10.442,10.442v5.743H199.788z"/>
	<path d="M479.979,263.919v-5.743c0-14.394-11.711-26.105-26.105-26.105H338.317
		c-14.394,0-26.105,11.711-26.105,26.105v5.743h15.663v-5.743c0-5.758,4.684-10.442,10.442-10.442h115.558
		c5.758,0,10.442,4.684,10.442,10.442v5.743H479.979z"/>
	<polygon points="23.669,167.68 208.141,167.68 208.141,263.919 223.804,263.919 223.804,152.017
		8.006,152.017 8.006,263.919 23.669,263.919 	"/>
	<path d="M167.767,223.891v-9.936c0-12.082-9.83-21.911-21.911-21.911h-59.9
		c-12.082,0-21.911,9.83-21.911,21.911v9.936h15.663v-9.936c0-3.446,2.804-6.248,6.248-6.248h59.899
		c3.446,0,6.248,2.804,6.248,6.248v9.936H167.767z"/>
	<polygon points="303.859,167.68 488.332,167.68 488.332,263.919 503.995,263.919 503.995,152.017
		288.196,152.017 288.196,263.919 303.859,263.919 	"/>
	<path d="M447.956,223.891v-9.936c0-12.082-9.83-21.911-21.911-21.911h-59.899
		c-12.082,0-21.911,9.83-21.911,21.911v9.936h15.663v-9.936c0-3.446,2.804-6.248,6.248-6.248h59.899
		c3.446,0,6.248,2.804,6.248,6.248v9.936H447.956z"/>
</g>
<g>
</g>
<g>
</g>
<g>
</g>
<g>
</g>
<g>
</g>
<g>
</g>
<g>
</g>
<g>
</g>
<g>
</g>
<g>
</g>
<g>
</g>
<g>
</g>
<g>
</g>
<g>
</g>
<g>
</g>
</svg>
