<svg width="459" height="459" xmlns="http://www.w3.org/2000/svg" xmlns:xlink="http://www.w3.org/1999/xlink" overflow="hidden"><defs><clipPath id="clip0"><path d="M393 103 852 103 852 562 393 562Z" fill-rule="evenodd" clip-rule="evenodd"/></clipPath></defs><g clip-path="url(#clip0)" transform="translate(-393 -103)"><path d="M394 332 422.135 312.222 398.39 287.324 429.834 273.428 411.393 244.366 444.938 236.882 432.509 204.774 466.865 203.995 460.926 170.073 494.774 176.025 495.552 141.593 527.59 154.049 535.058 120.431 564.056 138.912 577.922 107.399 602.765 131.196 622.5 103 642.235 131.196 667.078 107.399 680.944 138.912 709.942 120.431 717.41 154.049 749.448 141.593 750.226 176.025 784.074 170.073 778.135 203.995 812.491 204.774 800.062 236.882 833.607 244.366 815.166 273.428 846.61 287.324 822.865 312.222 851 332 822.865 351.778 846.61 376.676 815.166 390.572 833.607 419.634 800.062 427.118 812.491 459.226 778.135 460.005 784.074 493.927 750.226 487.975 749.448 522.407 717.41 509.951 709.942 543.569 680.944 525.088 667.078 556.601 642.235 532.804 622.5 561 602.765 532.804 577.922 556.601 564.056 525.088 535.058 543.569 527.59 509.951 495.552 522.407 494.774 487.975 460.926 493.927 466.865 460.005 432.509 459.226 444.938 427.118 411.393 419.634 429.834 390.572 398.39 376.676 422.135 351.778Z" fill-rule="evenodd"/></g></svg>